<svg width="24" height="24" viewBox="0 0 24 24" fill="none" xmlns="http://www.w3.org/2000/svg">
<g clip-path="url(#clip0_6_10)">
<path d="M21.5 4H18.8333V6C18.8333 6.19261 18.7954 6.38333 18.7217 6.56127C18.648 6.73921 18.5399 6.9009 18.4038 7.03709C18.2676 7.17328 18.1059 7.28132 17.9279 7.35502C17.75 7.42873 17.5593 7.46667 17.3667 7.46667C17.1741 7.46667 16.9833 7.42873 16.8054 7.35502C16.6275 7.28132 16.4658 7.17328 16.3296 7.03709C16.1934 6.9009 16.0853 6.73921 16.0116 6.56127C15.9379 6.38333 15.9 6.19261 15.9 6V4H8.13333V6C8.13333 6.38898 7.97881 6.76204 7.70376 7.03709C7.4287 7.31214 7.05565 7.46667 6.66667 7.46667C6.27768 7.46667 5.90463 7.31214 5.62958 7.03709C5.35452 6.76204 5.2 6.38898 5.2 6V4H2.53333C2.37468 3.9982 2.21728 4.02822 2.07043 4.08831C1.92359 4.14839 1.79029 4.23732 1.67841 4.34982C1.56653 4.46232 1.47835 4.59611 1.41907 4.74329C1.3598 4.89046 1.33065 5.04803 1.33333 5.20667V20.1267C1.33068 20.2825 1.35876 20.4373 1.41596 20.5823C1.47316 20.7273 1.55837 20.8596 1.66671 20.9717C1.77505 21.0837 1.9044 21.1733 2.04738 21.2354C2.19035 21.2974 2.34416 21.3307 2.5 21.3333H21.5C21.6558 21.3307 21.8096 21.2974 21.9526 21.2354C22.0956 21.1733 22.225 21.0837 22.3333 20.9717C22.4416 20.8596 22.5268 20.7273 22.584 20.5823C22.6412 20.4373 22.6693 20.2825 22.6667 20.1267V5.20667C22.6693 5.05083 22.6412 4.89599 22.584 4.751C22.5268 4.60601 22.4416 4.47371 22.3333 4.36166C22.225 4.24961 22.0956 4.15999 21.9526 4.09794C21.8096 4.03588 21.6558 4.0026 21.5 4V4ZM6.66667 17.3333H5.33333V16H6.66667V17.3333ZM6.66667 14H5.33333V12.6667H6.66667V14ZM6.66667 10.6667H5.33333V9.33333H6.66667V10.6667ZM10.6667 17.3333H9.33333V16H10.6667V17.3333ZM10.6667 14H9.33333V12.6667H10.6667V14ZM10.6667 10.6667H9.33333V9.33333H10.6667V10.6667ZM14.6667 17.3333H13.3333V16H14.6667V17.3333ZM14.6667 14H13.3333V12.6667H14.6667V14ZM14.6667 10.6667H13.3333V9.33333H14.6667V10.6667ZM18.6667 17.3333H17.3333V16H18.6667V17.3333ZM18.6667 14H17.3333V12.6667H18.6667V14ZM18.6667 10.6667H17.3333V9.33333H18.6667V10.6667Z" fill="white"/>
<path d="M6.66667 6.66666C6.84348 6.66666 7.01305 6.59642 7.13807 6.4714C7.2631 6.34638 7.33333 6.17681 7.33333 6V1.99999C7.33333 1.82318 7.2631 1.65361 7.13807 1.52859C7.01305 1.40357 6.84348 1.33333 6.66667 1.33333C6.48986 1.33333 6.32029 1.40357 6.19526 1.52859C6.07024 1.65361 6 1.82318 6 1.99999V6C6 6.17681 6.07024 6.34638 6.19526 6.4714C6.32029 6.59642 6.48986 6.66666 6.66667 6.66666Z" fill="white"/>
<path d="M17.3333 6.66666C17.5101 6.66666 17.6797 6.59642 17.8047 6.4714C17.9298 6.34638 18 6.17681 18 6V1.99999C18 1.82318 17.9298 1.65361 17.8047 1.52859C17.6797 1.40357 17.5101 1.33333 17.3333 1.33333C17.1565 1.33333 16.9869 1.40357 16.8619 1.52859C16.7369 1.65361 16.6667 1.82318 16.6667 1.99999V6C16.6667 6.17681 16.7369 6.34638 16.8619 6.4714C16.9869 6.59642 17.1565 6.66666 17.3333 6.66666Z" fill="white"/>
</g>
<defs>
<clipPath id="clip0_6_10">
<rect width="24" height="24" fill="white"/>
</clipPath>
</defs>
</svg>
