<svg width="24" height="24" viewBox="0 0 24 24" fill="none" xmlns="http://www.w3.org/2000/svg">
<path d="M21 4.12501H15C14.438 4.12389 13.8818 4.23814 13.3658 4.46068C12.8498 4.68321 12.3849 5.0093 12 5.41876C11.6151 5.0093 11.1502 4.68321 10.6342 4.46068C10.1182 4.23814 9.56197 4.12389 9 4.12501H3C2.50348 4.12747 2.028 4.32581 1.6769 4.67691C1.3258 5.028 1.12746 5.50349 1.125 6.00001V18C1.12746 18.4965 1.3258 18.972 1.6769 19.3231C2.028 19.6742 2.50348 19.8725 3 19.875H9C9.49652 19.8775 9.972 20.0758 10.3231 20.4269C10.6742 20.778 10.8725 21.2535 10.875 21.75C10.875 22.0484 10.9935 22.3345 11.2045 22.5455C11.4155 22.7565 11.7016 22.875 12 22.875C12.2984 22.875 12.5845 22.7565 12.7955 22.5455C13.0065 22.3345 13.125 22.0484 13.125 21.75C13.1275 21.2535 13.3258 20.778 13.6769 20.4269C14.028 20.0758 14.5035 19.8775 15 19.875H21C21.4965 19.8725 21.972 19.6742 22.3231 19.3231C22.6742 18.972 22.8725 18.4965 22.875 18V6.00001C22.8725 5.50349 22.6742 5.028 22.3231 4.67691C21.972 4.32581 21.4965 4.12747 21 4.12501V4.12501ZM9 17.625H3.375V6.37501H9C9.49652 6.37747 9.972 6.57581 10.3231 6.92691C10.6742 7.278 10.8725 7.75349 10.875 8.25001V18.075C10.2951 17.7769 9.65203 17.6226 9 17.625V17.625ZM20.625 17.625H15C14.348 17.6226 13.7049 17.7769 13.125 18.075V8.25001C13.1275 7.75349 13.3258 7.278 13.6769 6.92691C14.028 6.57581 14.5035 6.37747 15 6.37501H20.625V17.625Z" fill="white"/>
</svg>
